# xmcd
#
# Track frame offsets:
#	150
#	15377
#	27753
#	44013
#	63644
#	78952
#	87203
#	101994
#	112908
#	136164
#	146548
#	154371
#	162082
#	168894
#	175636
#	183414
#	190952
#
# Disc length: 2757 seconds
#
# Revision: 0
# Processed by: cddbd v1.4PL0 Copyright (c) Steve Scherf et al.
# Submitted via: dBpowerAMP V4.0
#
DISCID=d70ac311
DTITLE=Alejandro Fernandez - Auditorio Nacional
DYEAR=2002
DGENRE=Alternative
TTITLE0=Alejandra
TTITLE1=Tu boca
TTITLE2=Morena
TTITLE3=Jurame
TTITLE4=Gema de amor
TTITLE5=Norteñita de mis amores
TTITLE6=Noche de Ronda
TTITLE7=Solamente una vez
TTITLE8=Granada
TTITLE9=Reloj
TTITLE10=El Andraiego
TTITLE11=Cuando ya no me quieras
TTITLE12=Si Dios me quita la vida
TTITLE13=Perfidia
TTITLE14=Bonita
TTITLE15=Luz y Sombra
TTITLE16=Cuando yo te ame
EXTD=
EXTT0=
EXTT1=
EXTT2=
EXTT3=
EXTT4=
EXTT5=
EXTT6=
EXTT7=
EXTT8=
EXTT9=
EXTT10=
EXTT11=
EXTT12=
EXTT13=
EXTT14=
EXTT15=
EXTT16=
PLAYORDER=
